<svg xmlns="http://www.w3.org/2000/svg" width="28" height="34" fill="none">
    <path
        d="M23.386 18.05c-.039-4.17 3.56-6.198 3.725-6.292-2.038-2.85-5.198-3.24-6.308-3.27-2.653-.268-5.227 1.522-6.579 1.522-1.379 0-3.46-1.497-5.704-1.453-2.886.043-5.587 1.646-7.068 4.134-3.057 5.075-.777 12.532 2.151 16.634 1.465 2.009 3.177 4.252 5.418 4.173 2.192-.087 3.01-1.34 5.656-1.34 2.621 0 3.39 1.34 5.675 1.29 2.353-.037 3.834-2.018 5.248-4.045 1.693-2.303 2.373-4.57 2.4-4.687-.055-.018-4.57-1.67-4.614-6.667zM19.07 5.79C20.249 4.374 21.055 2.451 20.83.5c-1.706.072-3.84 1.132-5.07 2.515-1.086 1.218-2.058 3.215-1.807 5.094 1.917.137 3.885-.928 5.116-2.32z"
        fill="#000" />
</svg>