<svg width="164" height="164" viewBox="0 0 164 164" fill="none" xmlns="http://www.w3.org/2000/svg">
<mask id="mask0_4200_13933" style="mask-type:luminance" maskUnits="userSpaceOnUse" x="0" y="0" width="164" height="164">
<path d="M120.375 -0.000372717L0 42.6465L42.6469 163.022L163.022 120.375L120.375 -0.000372717Z" fill="white"/>
</mask>
<g mask="url(#mask0_4200_13933)">
<mask id="mask1_4200_13933" style="mask-type:luminance" maskUnits="userSpaceOnUse" x="0" y="0" width="164" height="164">
<path d="M120.375 -0.000372717L0 42.6465L42.6469 163.022L163.022 120.375L120.375 -0.000372717Z" fill="white"/>
</mask>
<g mask="url(#mask1_4200_13933)">
<path d="M46.5494 37.2195C49.5964 21.386 68.5485 14.6716 80.8835 25.0556L81.3314 25.4327C87.0226 30.2228 94.8134 31.6659 101.842 29.2311L102.396 29.0392C117.631 23.7612 132.923 36.8169 130.097 52.6918L129.995 53.2682C128.691 60.5915 131.337 68.0606 136.96 72.9302L137.403 73.3134C149.592 83.869 145.931 103.639 130.771 109.13L130.219 109.329C123.225 111.862 118.081 117.889 116.675 125.193L116.564 125.768C113.517 141.601 94.5652 148.316 82.2299 137.931L81.7819 137.555C76.0915 132.765 68.2998 131.321 61.2712 133.756L60.7179 133.948C45.4821 139.226 30.1915 126.171 33.0163 110.296L33.119 109.719C34.4223 102.396 31.7762 94.9268 26.1531 90.0573L25.7105 89.674C13.5218 79.1184 17.1829 59.3484 32.3433 53.8576L32.8939 53.6581C39.8878 51.1251 45.033 45.099 46.4387 37.7946L46.5494 37.2195Z" fill="url(#paint0_linear_4200_13933)"/>
</g>
</g>
<defs>
<linearGradient id="paint0_linear_4200_13933" x1="60.2336" y1="21.3059" x2="102.88" y2="141.681" gradientUnits="userSpaceOnUse">
<stop stop-color="#FEB914"/>
<stop offset="1" stop-color="#EDF9AE"/>
</linearGradient>
</defs>
</svg>
