<svg width="29" height="32" viewBox="0 0 29 32" fill="none" xmlns="http://www.w3.org/2000/svg">
<g clip-path="url(#clip0_1500_4698)">
<path d="M13.5431 15.2555L0.120087 29.2931C0.270826 29.8263 0.541709 30.3181 0.91203 30.7308C1.28235 31.1435 1.7423 31.4662 2.25673 31.6743C2.77115 31.8824 3.32643 31.9703 3.88012 31.9314C4.4338 31.8924 4.97123 31.7276 5.45133 31.4496L20.5548 22.8634L13.5431 15.2555Z" fill="#EA4335"/>
<path d="M27.1161 12.8694L20.5849 9.13527L13.2332 15.5748L20.6148 22.8433L27.0963 19.1491C27.6705 18.849 28.1514 18.3978 28.487 17.8443C28.8226 17.2908 29 16.6562 29 16.0092C29 15.3623 28.8226 14.7277 28.487 14.1742C28.1514 13.6207 27.6705 13.1694 27.0963 12.8693H27.1164L27.1161 12.8694Z" fill="#FBBC04"/>
<path d="M0.120085 2.65577C0.0389504 2.95518 -0.00143835 3.26412 6.93708e-06 3.57428V28.3745C0.000848145 28.6845 0.041198 28.9932 0.120085 29.2931L14.0033 15.615L0.120085 2.65577Z" fill="#4285F4"/>
<path d="M13.6429 15.9744L20.5846 9.13538L5.50119 0.509172C4.93368 0.177421 4.28823 0.00173175 3.63057 -6.94517e-07C1.99853 -0.00316677 0.563709 1.07805 0.119873 2.64582L13.6429 15.9744Z" fill="#34A853"/>
</g>
<defs>
<clipPath id="clip0_1500_4698">
<rect width="29" height="32" fill="white"/>
</clipPath>
</defs>
</svg>
